<?xml version="1.0" encoding="utf-8"?>
<!-- Generator: Adobe Illustrator 25.0.1, SVG Export Plug-In . SVG Version: 6.00 Build 0)  -->
<svg version="1.1" id="图层_1" xmlns="http://www.w3.org/2000/svg" xmlns:xlink="http://www.w3.org/1999/xlink" x="0px" y="0px"
	 viewBox="0 0 800 800" style="enable-background:new 0 0 800 800;" xml:space="preserve">
<style type="text/css">
	.st0{fill:#2D3C94;}
	.st1{font-family:'PingFangSC-Regular-GBpc-EUC-H';}
	.st2{font-size:152.8898px;}
	.st3{font-family:'PingFangSC-Medium-GBpc-EUC-H';}
	.st4{font-size:64.0279px;}
</style>
<g>
	<g>
		<path class="st0" d="M369.9,156.1c-0.1,0-0.3-0.1-0.4-0.1c-23.1-7.8-54.9,4.8-74,29.5c-21.8,28.2-36.2,77.9-37.5,129.9
			c-0.6,24.8,2.5,40.6,5.2,49.5c1.5,5.1,5.5,9,10.3,10.6c1.4,0.5,3,0.8,4.5,0.8l56.7,2.4c7.5,0.3,14.2-4.5,16.3-11.7
			c2.7-9.3,8.7-26.8,19.2-40.6c10.8-14.1,27.6-51.6,34.5-82.8C415.4,195.6,394.1,164.6,369.9,156.1z M363,320.9
			c-10.8,14.2-17.3,31.6-20.7,43.6c-0.9,3.1-3.8,5.2-7.1,5.1l-56.7-2.4c-3-0.1-5.6-2.1-6.5-5c-2.5-8.2-5.4-23-4.8-46.6
			c1.2-49.3,15.2-98.2,35.6-124.5c18.5-23.8,46.9-32.1,63.8-26.4c0.1,0,0.2,0.1,0.3,0.1c20.6,7.2,38.4,34.3,29,76.9
			C389.4,270.8,373.2,307.5,363,320.9z"/>
		<g>
			<path class="st0" d="M371.9,148.9c-21.1-7.3-45.5,0.6-62.9,13.3c-19.9,14.5-32.1,35.7-40.8,58.3c-9.9,25.6-15,53-17,80.2
				c-1,14.2-1.2,28.5,0.3,42.7c1,8.7,2,18.5,5.7,26.6c7.1,15.6,24.3,14,38.6,14.6c12.7,0.5,25.5,1.2,38.2,1.6
				c9.9,0.3,19.1-4.9,23.1-14c1.8-4.2,2.9-8.7,4.4-13c2.2-6.1,4.8-12,8-17.7c5-9.1,11.6-17.1,16.5-26.3c6-11.3,11.1-23.2,15.6-35.2
				c9.9-26.6,17.9-56,10.5-84.3C406.7,174.6,392.5,156.3,371.9,148.9c-9.1-3.3-13,11.2-4,14.5c14.2,5.1,24.2,18.3,28.7,32.4
				c7,21.9,2.2,44.7-4.6,66.1c-6.3,19.9-14.3,40.4-26.1,57.8c-6.3,9.4-12,18.4-16.4,28.9c-1.8,4.5-3.5,9-4.9,13.6
				c-1.2,3.8-2.3,7.3-6.5,8.7c-3.1,1-7.3,0.2-10.5,0.1c-6.4-0.3-12.9-0.5-19.3-0.8c-10-0.4-20.4,0-30.3-1.3c-8-1-9-10-10.2-16.5
				c-2-10.3-2.5-20.8-2.5-31.3c0.1-25.9,3.5-51.9,10.6-76.8c6.4-22.4,15.8-46,32.9-62.6c14.8-14.4,38.2-25.5,59-18.3
				C377,166.5,381,152,371.9,148.9z"/>
			<path class="st0" d="M356.5,317.1c-6.9,9.3-12.1,19.5-16.3,30.2c-1.7,4.2-3.1,8.5-4.5,12.8c-0.1,0.3-1,2.4-0.6,2.2
				c0.1,0,0.2-0.3,0-0.3c-0.3,0.1-0.6-0.1-0.9,0c-4,0.4-8.4-0.4-12.3-0.5c-6.4-0.3-12.7-0.5-19.1-0.8c-5.8-0.2-11.6-0.5-17.3-0.7
				c-1.7-0.1-6.1,0-6.8-0.4c1.2,0.6,0.2,0.6,0.2-0.5c0-0.6-0.4-1.4-0.5-1.9c-0.4-1.5-0.7-3-1-4.5c-0.8-3.6-1.3-7.1-1.7-10.7
				c-1.2-11.2-1.2-22.5-0.7-33.7c1.2-23.5,5.2-47,12.5-69.5c5.9-18.2,14.1-37.1,28-50.6c11.2-10.8,28.3-19.8,44.4-17.4
				c12.5,1.9,22.1,12.6,26.7,24c8.7,21.6,3,45.4-4,66.6C376.3,280.4,368.6,300.9,356.5,317.1c-2.4,3.3-0.5,8.3,2.7,10.3
				c3.8,2.3,7.8,0.5,10.3-2.7c12.1-16.2,19.7-36.6,26.2-55.5c7.7-22.3,13.5-46.3,7.9-69.8c-3.9-16.7-14.4-32.8-30.4-40
				c-17.1-7.7-37.3-2.9-52.9,6.3C301.1,177,288.6,195.8,280,216c-10.1,23.6-15.7,48.7-18.6,74.1c-2.6,22.8-3.4,46.9,2.1,69.4
				c2,8.3,6.1,14.5,15.3,15.2c4.3,0.3,8.6,0.4,12.9,0.5c13.9,0.6,27.8,1.4,41.7,1.8c2.8,0.1,5.5-0.1,8.2-1.3c5.9-2.8,7.5-8.3,9.3-14
				c4.2-13.2,10.2-25.8,18.5-36.9c2.4-3.3,0.5-8.3-2.7-10.3C363,312.1,358.9,313.8,356.5,317.1z"/>
		</g>
	</g>
	<g>
		<path class="st0" d="M338.2,400.6l-63.8-0.2l0,0c-4.9,0-9,4-9.1,9c-0.7,40.5,2.8,65,10.7,75c4,5.1,9.8,8.9,16.6,11.2
			c4.5,1.5,9.5,2.4,14.7,2.4c12.5,0.1,23.6-4.5,30.3-12.7c10.2-12.4,10.8-44.4,10-74l0-1.5C347.5,404.7,343.4,400.6,338.2,400.6z
			 M330.5,479.5c-4.9,5.9-13.5,9.4-23.1,9.3c-10.1-0.1-19.3-4-24.2-10.2c-4.4-5.6-9.5-22.1-8.7-69.1l63.7,0.2c0.1,0,0.2,0.1,0.2,0.3
			l0,1.5C338.9,427,340,468.1,330.5,479.5z"/>
		<g>
			<path class="st0" d="M338.2,393.1c-14.4,0-28.8-0.1-43.1-0.1c-6.5,0-13.2-0.6-19.7-0.1c-1.8,0.1-0.1,0.2,1,0.3
				c-4.4-0.2-8,0.3-11.7,3c-7.4,5.4-7,13.6-7,21.8c0,14.9,0.5,29.9,2.8,44.7c1.4,8.8,3.6,18.2,9,25.5c17.6,23.7,64.1,24.1,77.8-4.2
				c7.2-14.9,7.7-32.8,8-49c0.1-8.3,0.4-16.8-0.2-25.1C354.5,400.3,347.7,393.8,338.2,393.1c-9.6-0.7-9.6,14.3,0,15
				c3.4,0.3,2,8.3,2.1,10.2c0.1,7.5,0.1,15.1-0.1,22.6c-0.4,11.3-0.9,23.8-5.3,34.4c-8.4,20-44.2,20.4-54.5,1.9
				c-3.1-5.6-4.7-14.1-5.7-21.4c-1.7-12.8-1.9-25.9-1.9-38.8c0-1.9,0-3.8,0.1-5.7c-0.1,1.5,0.4-3.6,0.5-3.1c0.1,0.3,2.5-1.8-0.9-0.6
				c-3,1.1,1.5,0.2,2.1,0.3c1.4,0.1,2.7,0,4.1,0c6.6,0,13.2,0,19.8,0.1c13.3,0,26.5,0.1,39.8,0.1
				C347.9,408.2,347.9,393.2,338.2,393.1z"/>
			<path class="st0" d="M325.2,474.2c-7.7,8.7-22.4,9.2-32,3.3c-2.6-1.6-3.7-2.6-5-5c-0.3-0.6-1.3-3-0.6-1.1
				c-0.4-1.1-0.8-2.3-1.2-3.4c-5.6-18.5-4.7-39.4-4.4-58.5c-2.5,2.5-5,5-7.5,7.5c21.2,0.1,42.5,0.1,63.7,0.2
				c-1.8-0.7-3.5-1.5-5.3-2.2c0.1,0.1,0.2,0.2,0.2,0.3c-0.7-1.8-1.5-3.5-2.2-5.3c0.3,11,0.5,22.1,0,33.1c-0.3,6.3-0.7,12.6-1.9,18.9
				c-0.5,2.7-1.2,5.5-2,8.1c-0.4,1.1-0.5,1.5-0.9,2.3C326,472.8,324.5,475.3,325.2,474.2c-2.5,3.2-3.1,7.5,0,10.6
				c2.6,2.6,8.1,3.2,10.6,0c7.8-10.1,8.9-24.2,9.8-36.5c0.8-12.2,1-24.7,0.4-36.9c-0.6-10.7-10-9.1-17.7-9.2
				c-10.6,0-21.1-0.1-31.7-0.1c-7.3,0-14.7,0-22-0.1c-4.1,0-7.4,3.4-7.5,7.5c-0.2,14.5-0.2,29.2,1.5,43.7c0.9,7.6,1.9,15.3,4.7,22.5
				c9.3,23.6,46.3,27.7,62.6,9.1C342.2,477.6,331.6,467,325.2,474.2z"/>
		</g>
	</g>
</g>
<text transform="matrix(1 0 0 1 364.6459 504.233)" class="st0 st1 st2">NE</text>
<g>
	<text transform="matrix(1 0 0 1 440.8941 552.9609)" class="st0 st3 st4">step</text>
</g>
</svg>
