<?xml version="1.0" encoding="utf-8"?>
<!-- Generator: Adobe Illustrator 25.0.1, SVG Export Plug-In . SVG Version: 6.00 Build 0)  -->
<svg version="1.1" id="图层_1" xmlns="http://www.w3.org/2000/svg" xmlns:xlink="http://www.w3.org/1999/xlink" x="0px" y="0px"
	 viewBox="0 0 800 800" style="enable-background:new 0 0 800 800;" xml:space="preserve">
<style type="text/css">
	.st0{fill:#1F479C;}
	.st1{font-family:'PingFangSC-Regular-GBpc-EUC-H';}
	.st2{font-size:152.8898px;}
	.st3{font-family:'PingFangSC-Medium-GBpc-EUC-H';}
	.st4{font-size:64.0279px;}
</style>
<g>
	<g>
		<g>
			<path class="st0" d="M372.7,147.4c-0.2-0.1-0.3-0.1-0.4-0.2c-26.1-9-61.9,5.1-83.7,32.8c-24.8,31.6-41.4,87.7-43.2,146.4
				c-0.9,28,2.6,45.9,5.6,55.9c1.7,5.7,6.1,10.2,11.6,12c1.6,0.6,3.3,0.9,5.1,1l64,3.1c8.5,0.4,16-5,18.4-13.1
				c3.1-10.4,10-30.2,22-45.7c12.2-15.9,31.4-58.1,39.4-93.2C423.9,192.2,400.1,157.1,372.7,147.4z M363.9,333.3
				c-12.3,16-19.7,35.5-23.7,49.1c-1,3.5-4.3,5.8-8,5.7l-64-3.1c-3.4-0.2-6.3-2.4-7.3-5.7c-2.8-9.3-5.9-26-5.1-52.7
				c1.7-55.7,17.8-110.7,40.9-140.3c21-26.8,53.1-35.9,72.2-29.4c0.1,0,0.2,0.1,0.3,0.1c23.2,8.2,43.1,39,32.2,87
				C394,276.9,375.5,318.3,363.9,333.3z"/>
			<g>
				<path class="st0" d="M373.4,145c-10.9-3.8-22.8-3.6-33.9-1c-12.3,2.8-24,8.6-34.1,16.2c-10.3,7.8-18.8,17.3-25.8,28.2
					c-7,10.8-12.5,22.5-17.1,34.5c-5.2,13.5-9.2,27.5-12.2,41.6c-3.3,15.2-5.4,30.7-6.6,46.3c-1.1,15.1-1.4,30.4,0,45.6
					c0.5,5.5,1.3,11,2.3,16.4c0.8,4,1.6,8.2,3.1,12c2.6,6.3,8.1,11.2,14.8,12.6c2,0.4,4,0.5,6.1,0.6c6.3,0.3,12.7,0.6,19,0.9
					c8.5,0.4,17,0.8,25.5,1.2c5.4,0.3,10.9,0.5,16.3,0.8c3.6,0.2,7.1-0.4,10.5-1.9c5.9-2.6,9.7-7.9,11.5-13.9
					c3.5-11.7,8.2-23.2,14.4-33.7c3.1-5.2,6.8-9.9,10.2-14.9c2.9-4.3,5.5-8.9,7.9-13.5c6.4-12,11.8-24.4,16.6-37.1
					c5.1-13.4,9.6-27.2,12.6-41.3c2.9-13.7,3.8-27.9,1.7-41.8c-1.6-11.1-5.3-22-11.3-31.5c-5.1-8.2-11.9-15.4-20.1-20.6
					C381.3,148.3,377.4,146.4,373.4,145c-1.3-0.5-2.7,0.5-3.1,1.7c-0.4,1.4,0.5,2.6,1.7,3.1c0.5,0.2,0.9,0.3,1.4,0.5
					c0.2,0.1,0.4,0.2,0.7,0.3c0.1,0,0.2,0.1,0.3,0.1c0.4,0.2-0.5-0.2,0.2,0.1c0.9,0.4,1.9,0.8,2.8,1.3c1.9,1,3.7,2,5.5,3.2
					c3.6,2.4,6.8,5.1,9.9,8.3c6.7,7,11.7,15.7,14.9,25c3.9,11.5,5.2,23.6,4.5,35.7c-0.8,14.1-4.3,27.9-8.5,41.3
					c-4.2,13.3-9.2,26.3-14.9,38.9c-4.6,10.2-9.7,20.4-15.9,29.7c-3.3,4.9-6.9,9.5-9.9,14.5c-3.5,5.9-6.5,12.2-9.1,18.5
					c-2.1,5-3.9,10.2-5.5,15.4c-0.8,2.5-1.5,4.8-3.1,7c-1.7,2.2-4,4-6.5,5c-4.4,1.8-9.5,1-14.2,0.8c-7.5-0.4-15-0.7-22.5-1.1
					c-7.9-0.4-15.8-0.8-23.7-1.1c-2.6-0.1-5.2-0.2-7.8-0.4c-1.4-0.1-2.8-0.1-4.1-0.3c-5.9-0.9-11-5.1-12.8-10.9
					c-1.2-3.7-2-7.5-2.7-11.3c-2.3-12-3-24.4-2.9-36.7c0.1-15.5,1.3-31.1,3.5-46.5c2.1-14.6,5.2-29,9.3-43.2
					c3.7-12.7,8.3-25.2,14.2-37.1c5.2-10.5,11.3-20.8,19.1-29.6c8.4-9.5,18.7-17.4,30.2-22.8c10.2-4.9,21.6-7.9,33-7.5
					c5.1,0.2,10,1,14.9,2.7c1.3,0.4,2.7-0.5,3.1-1.7C375.5,146.7,374.7,145.4,373.4,145z"/>
				<path class="st0" d="M361.8,332c-8.1,10.5-14.1,22.5-18.9,34.8c-1,2.7-2,5.4-2.9,8.1c-0.8,2.4-1.4,5-2.3,7.4
					c-1.1,2.6-3.5,3.4-6.1,3.3c-12-0.6-24-1.1-36-1.7c-6.8-0.3-13.5-0.6-20.3-1c-1.9-0.1-3.9-0.2-5.8-0.3c-1.7-0.1-3.4-0.2-4.7-1.6
					c-1.3-1.3-1.7-3-2.1-4.7c-0.5-1.7-0.9-3.5-1.2-5.2c-0.9-4.4-1.6-8.7-2.1-13c-1.5-13.2-1.4-26.4-0.7-39.6
					c1.5-27.6,6.4-55.1,15.2-81.3c3.8-11.3,8.4-22.3,14.1-32.8c5.4-9.7,11.7-18.8,19.9-26.4c8.1-7.5,17.7-13.4,28.1-17
					c4.5-1.5,9.4-2.7,13.9-3.2c2.3-0.2,4.6-0.4,6.9-0.3c1,0,2,0.1,3,0.2c1.2,0.1,1.7,0.2,2.7,0.3c2,0.3,3.9,0.8,5.8,1.5
					c1.9,0.7,2.8,1,4.6,2c3.5,1.8,6.5,3.8,9.2,6.2c6.4,5.6,11.2,12.8,14.4,20.7c4,10,5.6,20.7,5.5,31.4c-0.2,12.8-3,25.3-6.6,37.5
					c-3.5,12.1-7.9,23.9-12.8,35.5c-4.3,10.1-9,20.1-14.5,29.6C366.2,325.6,364.1,328.9,361.8,332c-0.8,1.1-0.2,2.8,0.9,3.4
					c1.3,0.8,2.6,0.2,3.4-0.9c5.7-7.5,10.1-16.1,14.2-24.5c5.5-11.4,10.4-23.1,14.6-35c8.5-23.9,15.5-49.7,10.4-75.1
					c-3.6-17.7-13.9-35.2-30.6-43.2c-17.9-8.6-39.6-2.9-55.8,6.9c-10.4,6.3-19.3,14.8-26.5,24.6c-6.6,9.1-11.9,19.2-16.4,29.6
					c-10.9,25.4-17.2,52.7-20.5,80.1c-1.7,14.7-2.6,29.5-2.2,44.2c0.3,10.6,1.3,21.2,3.6,31.5c0.9,4,1.6,8.7,4.9,11.4
					c2.2,1.8,4.8,2.4,7.5,2.6c5.1,0.2,10.1,0.5,15.2,0.7c14.2,0.7,28.5,1.4,42.7,2c1.5,0.1,3.1,0.2,4.6,0.2c4.1,0.2,8.1-1.8,10-5.6
					c1.2-2.4,1.8-5.2,2.6-7.8c0.9-2.7,1.9-5.5,2.9-8.2c2.3-6,4.9-11.8,7.8-17.4c3.2-6,6.7-11.7,10.9-17.1c0.8-1.1,0.2-2.8-0.9-3.4
					C363.9,330.4,362.6,330.9,361.8,332z"/>
			</g>
		</g>
		<g>
			<path class="st0" d="M335.5,423.1l-72-0.6l0,0c-5.6,0-10.2,4.5-10.3,10.1c-1,45.7,2.7,73.4,11.6,84.7c4.5,5.7,11,10.1,18.7,12.8
				c5.1,1.8,10.7,2.7,16.6,2.8c14.1,0.2,26.6-4.9,34.2-14.1c11.6-14,12.5-50,11.8-83.4l0-1.7C345.9,427.8,341.3,423.2,335.5,423.1z
				 M326.3,512.1c-5.5,6.6-15.3,10.5-26.1,10.4c-11.3-0.2-21.8-4.6-27.3-11.6c-5-6.3-10.6-25-9.4-78l71.9,0.6c0.1,0,0.3,0.1,0.3,0.3
				l0,1.7C336.1,453,337,499.2,326.3,512.1z"/>
			<g>
				<path class="st0" d="M335.5,420.6c-4.8,0-9.6-0.1-14.4-0.1c-9.8-0.1-19.7-0.2-29.5-0.3c-8.1-0.1-16.2-0.1-24.3-0.2
					c-1,0-1.9,0-2.9,0c-0.2,0-0.5,0-0.7,0c0,0-0.1,0-0.2,0c0,0,0,0,0,0c0,0,0,0,0,0c-0.2,0,0,0,0.7,0.1c-0.4,0-0.8-0.1-1.2-0.1
					c-3.9,0.2-7.5,2.1-9.8,5.2c-2.6,3.6-2.5,7.7-2.6,11.9c-0.3,16.2-0.1,32.6,1.9,48.7c1.2,9.9,2.9,20.5,7.9,29.3
					c7.7,13.8,24.8,20,39.8,20.2c14.7,0.2,31.2-5.8,38.8-19.2c3.2-5.6,5-12.1,6.2-18.4c1.6-8,2.4-16.1,2.8-24.2
					c0.5-9,0.6-18.1,0.6-27.2c0-4-0.1-8-0.2-12c-0.1-3.5-1.1-6.8-3.4-9.4C342.7,422.2,339.1,420.7,335.5,420.6c-3.2-0.1-3.2,4.9,0,5
					c2.9,0.1,5.5,1.6,7,4.1c1.3,2.4,1.1,5.1,1.1,7.8c0.2,8.7,0.2,17.5,0,26.2c-0.2,8.2-0.7,16.3-1.7,24.4
					c-0.9,6.7-2.1,13.4-4.5,19.8c-2,5.4-4.9,9.8-9.4,13.6c-5.6,4.6-12.6,7.2-19.6,8.3c-8.4,1.3-17.3,0.3-25.3-2.6
					c-3.7-1.4-7.2-3.3-10.4-5.7c-1.4-1.1-2.7-2.3-4-3.6c-0.7-0.7-1.3-1.4-1.9-2.1c-0.5-0.6,0.1,0.2-0.2-0.2
					c-0.1-0.2-0.2-0.3-0.4-0.5c-1-1.4-1.8-2.9-2.6-4.5c-0.2-0.4-0.4-0.8-0.6-1.2c-0.3-0.6,0.1,0.2-0.1-0.2c-0.1-0.3-0.2-0.6-0.3-0.8
					c-0.4-0.9-0.7-1.9-1-2.9c-1.6-4.8-2.6-9.8-3.4-14.8c-2.3-14.1-2.7-28.9-2.7-43.3c0-4.6,0-9.2,0.1-13.8c0.1-3.1,1.2-5.9,4-7.5
					c0.6-0.3,1.2-0.6,1.8-0.8c0.3-0.1,0.7-0.2,1-0.2c0.1,0,0.4,0,0.5,0c0.3,0,0.2,0-0.1-0.1c0.2,0,0.4,0.1,0.7,0.1
					c0.1,0,0.2,0,0.3,0c0.6,0,1.3,0,1.9,0c7,0.1,14,0.1,21.1,0.2c9.7,0.1,19.4,0.2,29.1,0.3c6.2,0.1,12.5,0.1,18.7,0.2
					c0.3,0,0.6,0,0.9,0C338.7,425.7,338.7,420.7,335.5,420.6z"/>
				<path class="st0" d="M324.5,510.4c-7.5,8.9-20.7,11.1-31.6,8.9c-5.4-1.1-10.8-3.1-15-6.7c-1-0.8-1.9-1.7-2.7-2.7
					c-0.2-0.3-0.4-0.5-0.6-0.8c0.6,0.6,0.3,0.4,0.2,0.3c-0.1-0.1-0.2-0.3-0.3-0.4c-0.4-0.6-0.7-1.1-1.1-1.7
					c-0.4-0.7-0.7-1.5-1.1-2.2c0-0.1-0.1-0.1-0.1-0.2c-0.2-0.4,0.2,0.6,0.1,0.2c-0.1-0.2-0.2-0.5-0.3-0.7c-0.2-0.5-0.4-0.9-0.5-1.4
					c-0.8-2.3-1.4-4.7-2-7c-0.7-3.2-1.3-6.4-1.7-9.7c-0.1-0.5,0-0.2,0-0.1c0-0.2-0.1-0.5-0.1-0.7c-0.1-0.5-0.1-1-0.2-1.5
					c-0.1-1-0.2-2.1-0.3-3.1c-0.2-2.2-0.4-4.4-0.6-6.6c-1-13.7-1-27.5-0.7-41.3c-0.8,0.8-1.7,1.7-2.5,2.5c8.1,0.1,16.3,0.1,24.4,0.2
					c12.9,0.1,25.7,0.2,38.6,0.3c3,0,5.9,0.1,8.9,0.1c-0.4-0.1-0.8-0.2-1.3-0.3c0.1,0,0.1,0.1,0.2,0.1c-0.4-0.5-0.8-1-1.1-1.5
					c-0.1-0.4,0-0.4,0,0c0,0.3,0,0.5,0,0.8c0,0.4,0,0.8,0,1.2c0,1,0,2,0.1,3c0,2.3,0.1,4.6,0.1,6.9c0.1,5.6,0,11.2-0.1,16.8
					c-0.3,11.8-0.9,23.6-3.6,35c-0.6,2.6-1.4,5.1-2.3,7.6c0,0.1-0.1,0.2-0.1,0.3c0.1-0.3,0-0.1-0.1,0.1c-0.1,0.3-0.2,0.5-0.4,0.8
					c-0.2,0.5-0.5,1-0.8,1.5c-0.3,0.5-0.5,0.9-0.8,1.3c-0.1,0.2-0.3,0.4-0.4,0.6C324.4,510.6,325,509.8,324.5,510.4
					c-0.9,1-1,2.5,0,3.5c0.9,0.9,2.7,1,3.5,0c3.7-4.5,5.4-10.3,6.6-15.8c1.6-7.3,2.4-14.7,2.9-22.1c1-13.5,0.8-27,0.6-40.5
					c0-1.8,0-3.9-2.1-4.5c-0.4-0.1-0.6-0.1-1-0.1c-0.9,0-1.8,0-2.7,0c-3.9,0-7.8-0.1-11.7-0.1c-11.5-0.1-23-0.2-34.5-0.3
					c-7.5-0.1-14.9-0.3-22.4-0.2c-0.1,0-0.2,0-0.4,0c-1.4,0-2.5,1.2-2.5,2.5c-0.3,12.9-0.3,25.8,0.5,38.7c0.5,8.2,1.3,16.4,3,24.5
					c1,4.6,2.2,9.2,4.4,13.4c3.9,7.4,12,11.9,19.9,14c13.2,3.5,30,1.4,39.2-9.5c0.9-1,1-2.5,0-3.5
					C327.2,509.5,325.4,509.3,324.5,510.4z"/>
			</g>
		</g>
	</g>
</g>
<text transform="matrix(1 0 0 1 360.18 532.3634)" class="st0 st1 st2">NE</text>
<g>
	<text transform="matrix(1 0 0 1 436.4282 581.0913)" class="st0 st3 st4">step</text>
</g>
</svg>
