<?xml version="1.0" encoding="utf-8"?>
<!-- Generator: Adobe Illustrator 25.0.1, SVG Export Plug-In . SVG Version: 6.00 Build 0)  -->
<svg version="1.1" id="图层_1" xmlns="http://www.w3.org/2000/svg" xmlns:xlink="http://www.w3.org/1999/xlink" x="0px" y="0px"
	 viewBox="0 0 800 800" style="enable-background:new 0 0 800 800;" xml:space="preserve">
<style type="text/css">
	.st0{fill:#1F479C;}
</style>
<g>
	<g>
		<path class="st0" d="M114.3,335.5c-0.1,0-0.1,0-0.2,0c-11.3-1.1-24.4,8.1-30.4,21.3c-6.9,15.1-8,39.3-3,63
			c2.4,11.3,5.5,18.2,7.7,21.9c1.2,2.1,3.4,3.5,5.8,3.7c0.7,0.1,1.4,0,2.1-0.1l26-5c3.4-0.7,6-3.6,6.1-7c0.2-4.5,1.1-13.1,4.4-20.5
			c3.4-7.6,7-26.4,6.7-41.3C139.2,348.5,126.3,336.7,114.3,335.5z M128.9,411c-3.4,7.6-4.4,16.2-4.7,22c-0.1,1.5-1.2,2.8-2.7,3.1
			l-26,5c-1.4,0.3-2.8-0.4-3.5-1.6c-2-3.5-4.9-9.9-7.2-20.6c-4.8-22.5-3.7-46.2,2.7-60.3c5.8-12.8,17.8-19.6,26.1-18.8
			c0,0,0.1,0,0.1,0c10.1,1,21.1,11.4,21.4,31.8C135.5,385.4,132.1,403.8,128.9,411z"/>
		<path class="st0" d="M126.3,449.8l-29,6.8l0,0c-2.2,0.5-3.7,2.8-3.2,5c4,18.4,8.3,29.2,12.9,32.9c2.4,1.9,5.4,3,8.8,3.3
			c2.2,0.2,4.6,0.1,6.9-0.5c5.7-1.3,10.2-4.6,12.4-9c3.3-6.7,0.1-21.3-3.4-34.6l-0.2-0.7C130.9,450.7,128.6,449.3,126.3,449.8z
			 M131.3,486.4c-1.6,3.2-5.1,5.7-9.5,6.7c-4.6,1-9.2,0.3-12.1-2c-2.6-2.1-6.7-9-11.4-30.4l28.9-6.8c0.1,0,0.1,0,0.1,0.1l0.2,0.7
			C129.4,461.7,134.3,480.2,131.3,486.4z"/>
	</g>
	<g>
		<path class="st0" d="M163.1,339.5l62,88.3h0.3v-88.3h5.2v95.4h-6.4l-62.3-88.9h-0.3v88.9h-5.2v-95.4H163.1z"/>
		<path class="st0" d="M316.5,339.5v4.8h-60.9v38.6h57.9v4.8h-57.9v42.4h63.2v4.8h-68.4v-95.4H316.5z"/>
		<path class="st0" d="M477.9,345.5c6.1,5.2,9.6,12.6,10.4,22.2h-5.2c-0.9-8-3.9-14.3-8.8-18.7c-5.1-4.4-11.9-6.5-20.7-6.5
			c-8.4,0-15.1,1.5-19.9,4.7c-5.5,3.3-8.2,8.3-8.2,14.8c0,5.9,3.3,10.4,10,13.9c2.9,1.6,9.4,3.7,19.1,6.4
			c11.8,3.2,19.9,6.1,24.3,8.8c7.8,4.7,11.6,11.4,11.6,19.9c0,8-3.5,14.4-10.3,19.1c-6.5,4.4-15,6.7-25.3,6.7
			c-10.7,0-19.2-2.7-25.4-7.9c-6.8-5.7-10.7-14.3-11.5-25.5h5.1c0.8,9.6,4.1,16.8,10,21.8c5.3,4.4,12.6,6.7,21.6,6.7
			c9,0,16.3-1.9,21.9-5.6c5.6-3.7,8.6-8.8,8.6-15.1c0-7.1-3.5-12.6-10.2-16.4c-3.7-2.3-11.1-4.8-22-7.8c-11.2-3.2-18.4-5.6-21.9-7.5
			c-7.3-4.1-11-9.9-11-17.4c0-8.2,3.3-14.3,10.3-18.6c5.9-4,13.6-5.9,23.1-5.9C463.9,337.7,472,340.2,477.9,345.5z"/>
		<path class="st0" d="M575.9,339.5v4.8h-36.3v90.6h-5.2v-90.6h-36.6v-4.8H575.9z"/>
		<path class="st0" d="M654.4,339.5v4.8h-60.9v38.6h57.9v4.8h-57.9v42.4h63.2v4.8h-68.4v-95.4H654.4z"/>
		<path class="st0" d="M710.9,339.5c20.3,0,30.6,8.8,30.6,26.6c0,17.9-10.3,26.9-30.7,26.9h-33.1v42h-5.2v-95.4H710.9z M677.7,388.2
			h33c8.8,0,15.2-2,19.5-5.7c4-3.6,6.1-9.1,6.1-16.3s-2.1-12.7-6.1-16.2c-4.3-3.7-10.8-5.6-19.5-5.6h-33V388.2z"/>
	</g>
</g>
</svg>
