<?xml version="1.0" encoding="utf-8"?>
<!-- Generator: Adobe Illustrator 25.0.1, SVG Export Plug-In . SVG Version: 6.00 Build 0)  -->
<svg version="1.1" id="图层_1" xmlns="http://www.w3.org/2000/svg" xmlns:xlink="http://www.w3.org/1999/xlink" x="0px" y="0px"
	 viewBox="0 0 290 290" style="enable-background:new 0 0 290 290;" xml:space="preserve">
<style type="text/css">
	.st0{clip-path:url(#SVGID_2_);}
	.st1{fill:#FCC72B;}
	.st2{fill:#C7D7A4;}
	.st3{fill:#729B1B;}
</style>
<g>
	<defs>
		<rect id="SVGID_1_" width="290" height="290"/>
	</defs>
	<clipPath id="SVGID_2_">
		<use xlink:href="#SVGID_1_"  style="overflow:visible;"/>
	</clipPath>
	<g class="st0">
		<g>
			<path class="st1" d="M211.4,84.6l-63.5,91.8c-0.7,1-1.6,1.7-2.8,2.1s-2.3,0.4-3.5,0c-1.1-0.4-2.1-1.1-2.8-2.1
				c-0.7-1-1-2.1-0.9-3.3l2.5-50.7l-41-8.7c-0.9-0.2-1.7-0.6-2.4-1.2c-0.7-0.6-1.2-1.3-1.5-2.1c-0.3-0.8-0.5-1.7-0.4-2.6
				c0.1-0.9,0.4-1.7,0.9-2.5l63.5-91.8c0.7-1,1.6-1.7,2.8-2.1c1.1-0.4,2.3-0.4,3.5,0c1.1,0.4,2.1,1.1,2.8,2.1c0.7,1,1,2.1,0.9,3.3
				L167,67.5l41,8.7c0.9,0.2,1.7,0.6,2.4,1.2c0.7,0.6,1.2,1.3,1.5,2.1c0.3,0.8,0.5,1.7,0.4,2.6C212.2,83,211.9,83.9,211.4,84.6
				L211.4,84.6z"/>
		</g>
	</g>
</g>
<g>
	<g>
		<path class="st2" d="M81.3,116.3c6,0,10.9,4.9,10.9,10.9l0,57.6c0,18.6,4,32.7,12.5,42.2c8.8,9.8,22.6,14.9,41.4,14.9
			c18.6,0,32.4-5,41.4-14.9c8.2-9.6,12.5-23.6,12.5-42.2l0-57.6c0-6,4.9-10.9,10.9-10.9h0c6,0,10.9,4.9,10.9,10.9l0,57.3
			c0,24.7-6.4,43.5-18.9,56.6c-13,13.3-31.9,19.9-56.8,19.9c-25,0-43.8-6.6-56.6-19.6c-12.7-13.3-19.1-32.1-19.1-56.8l-0.9-57.1
			c-0.1-6.1,4.8-11.1,10.9-11.1H81.3z"/>
	</g>
</g>
<g>
	<path class="st3" d="M75.7,202.6l-5.2-16.8c-0.1-6.1,3.8-11.1,9.9-11.1h0.9c6,0,10.9,4.9,10.9,10.9l0,17"/>
</g>
<g>
	<path class="st3" d="M92.2,184.8L92.2,184.8c0,18.6,4,32.7,12.5,42.2c8.8,9.8,22.6,14.9,41.4,14.9c18.6,0,32.4-5,41.4-14.9
		c8.2-9.6,12.5-23.6,12.5-42.2l0-57.6c0-6,4.9-10.9,10.9-10.9h0c6,0,10.9,4.9,10.9,10.9l0,57.3c0,24.7-6.4,43.5-18.9,56.6
		c-13,13.3-31.9,19.9-56.8,19.9c-25,0-43.8-6.6-56.6-19.6c-12.7-13.3-19.1-32.1-19.1-56.8l0,0L92.2,184.8z"/>
</g>
</svg>
